<svg xmlns="http://www.w3.org/2000/svg" version="1.1" xmlns:xlink="http://www.w3.org/1999/xlink" xmlns:svgjs="http://svgjs.dev/svgjs" width="128" height="128" viewBox="0 0 128 128"><g transform="matrix(0.8046875,0,0,0.8046875,12.41184074821259,12.814873242367177)"><svg viewBox="0 0 98 98" data-background-color="#333366" preserveAspectRatio="xMidYMid meet" height="127" width="128" xmlns="http://www.w3.org/2000/svg" xmlns:xlink="http://www.w3.org/1999/xlink"><g id="tight-bounds" transform="matrix(1,0,0,1,0.08387967645792571,0.08387967645792571)"><svg viewBox="0 0 97.83224064708415 97.83224064708415" height="97.83224064708415" width="97.83224064708415"><g><svg></svg></g><g><svg viewBox="0 0 97.83224064708415 97.83224064708415" height="97.83224064708415" width="97.83224064708415"><g><path d="M0 48.916c0-27.016 21.9-48.916 48.916-48.916 27.016 0 48.916 21.9 48.916 48.916 0 27.016-21.9 48.916-48.916 48.916-27.016 0-48.916-21.9-48.916-48.916zM48.916 94.113c24.962 0 45.197-20.235 45.197-45.197 0-24.962-20.235-45.197-45.197-45.197-24.962 0-45.197 20.235-45.197 45.197 0 24.962 20.235 45.197 45.197 45.197z" data-fill-palette-color="tertiary" fill="#ffffff" stroke="transparent"></path><ellipse rx="46.95947551060039" ry="46.95947551060039" cx="48.916120323542074" cy="48.916120323542074" fill="#ffffff" stroke="transparent" stroke-width="0" fill-opacity="1" data-fill-palette-color="tertiary"></ellipse></g><g transform="matrix(1,0,0,1,23.47539391502934,28.295165548934875)"><svg viewBox="0 0 50.88145281702547 41.2419095492144" height="41.2419095492144" width="50.88145281702547"><g><svg viewBox="0 0 50.88145281702547 41.2419095492144" height="41.2419095492144" width="50.88145281702547"><g><svg viewBox="0 0 50.88145281702547 41.2419095492144" height="41.2419095492144" width="50.88145281702547"><g id="textblocktransform"><svg viewBox="0 0 50.88145281702547 41.2419095492144" height="41.2419095492144" width="50.88145281702547" id="textblock"><g><svg viewBox="0 0 50.88145281702547 41.2419095492144" height="41.2419095492144" width="50.88145281702547"><g><svg viewBox="0 0 50.88145281702547 41.2419095492144" height="41.2419095492144" width="50.88145281702547"><g><svg xmlns:x="http://ns.adobe.com/Extensibility/1.0/" xmlns:i="http://ns.adobe.com/AdobeIllustrator/10.0/" xmlns:graph="http://ns.adobe.com/Graphs/1.0/" xmlns="http://www.w3.org/2000/svg" xmlns:xlink="http://www.w3.org/1999/xlink" version="1.1" x="0" y="0" viewBox="3.5 12.3 92.9 75.3" enable-background="new 0 0 100 100" xml:space="preserve" height="41.2419095492144" width="50.88145281702547" class="icon-icon-0" data-fill-palette-color="quaternary" id="icon-0"><path d="M10.7 87.6H89.2C93.2 87.6 96.4 84.4 96.4 80.4V19.5C96.4 15.5 93.2 12.3 89.2 12.3H10.7C6.7 12.3 3.5 15.5 3.5 19.5V80.4C3.6 84.4 6.8 87.6 10.7 87.6M89.3 82.6H10.7C9.5 82.6 8.5 81.6 8.5 80.4V34.9H91.4V80.4C91.4 81.7 90.5 82.6 89.3 82.6M10.7 17.4H89.2C90.4 17.4 91.4 18.4 91.4 19.6V30H8.6V19.5C8.6 18.3 9.5 17.4 10.7 17.4M21.9 23.6C21.9 21.9 23.3 20.6 24.9 20.6S27.9 22 27.9 23.6C27.9 25.3 26.5 26.6 24.9 26.6S21.9 25.3 21.9 23.6M31.9 23.6C31.9 21.9 33.3 20.6 34.9 20.6S37.9 22 37.9 23.6C37.9 25.3 36.5 26.6 34.9 26.6S31.9 25.3 31.9 23.6M11.9 23.6C11.9 21.9 13.3 20.6 14.9 20.6 16.6 20.6 17.9 22 17.9 23.6 17.9 25.3 16.5 26.6 14.9 26.6 13.3 26.7 11.9 25.3 11.9 23.6M85.4 74.7C85.4 76.1 84.3 77.2 82.9 77.2H17.1C15.7 77.2 14.6 76.1 14.6 74.7S15.7 72.2 17.1 72.2H82.9C84.3 72.2 85.4 73.4 85.4 74.7M85.4 64.2C85.4 65.6 84.3 66.7 82.9 66.7H34.4C33 66.7 31.9 65.6 31.9 64.2S33 61.7 34.4 61.7H82.9C84.3 61.7 85.4 62.8 85.4 64.2M85.4 53.7C85.4 55.1 84.3 56.2 82.9 56.2H17.1C15.7 56.2 14.6 55.1 14.6 53.7S15.7 51.2 17.1 51.2H82.9C84.3 51.2 85.4 52.3 85.4 53.7M85.4 43.1C85.4 44.5 84.3 45.6 82.9 45.6H50C48.6 45.6 47.5 44.5 47.5 43.1S48.6 40.6 50 40.6H82.9C84.3 40.6 85.4 41.7 85.4 43.1" fill="#333366" data-fill-palette-color="quaternary"></path></svg><g></g></g></svg></g></svg></g></svg></g></svg></g><g></g></svg></g></svg></g></svg></g><defs></defs></svg><rect width="97.83224064708415" height="97.83224064708415" fill="none" stroke="none" visibility="hidden"></rect></g></svg></g></svg>