<svg xmlns="http://www.w3.org/2000/svg" version="1.1" xmlns:xlink="http://www.w3.org/1999/xlink" xmlns:svgjs="http://svgjs.dev/svgjs" width="2000" height="2000" viewBox="0 0 2000 2000"><g transform="matrix(1,0,0,1,-0.28443113772425477,-0.28443113772459583)"><svg viewBox="0 0 334 334" data-background-color="#333366" preserveAspectRatio="xMidYMid meet" height="2000" width="2000" xmlns="http://www.w3.org/2000/svg" xmlns:xlink="http://www.w3.org/1999/xlink"><g id="tight-bounds" transform="matrix(1,0,0,1,0.04749999999998522,0.04750000000001364)"><svg viewBox="0 0 333.90454557049503 333.90454557049503" height="333.90454557049503" width="333.90454557049503"><g><svg></svg></g><g><svg viewBox="0 0 333.90454557049503 333.90454557049503" height="333.90454557049503" width="333.90454557049503"><g><path d="M0 166.952c0-92.205 74.747-166.952 166.952-166.952 92.205 0 166.952 74.747 166.953 166.952 0 92.205-74.747 166.952-166.953 166.953-92.205 0-166.952-74.747-166.952-166.953zM166.952 326.622c88.183 0 159.67-71.487 159.67-159.67 0-88.183-71.487-159.67-159.67-159.67-88.183 0-159.67 71.487-159.67 159.67 0 88.183 71.487 159.67 159.67 159.67z" data-fill-palette-color="tertiary" fill="#ffffff" stroke="transparent"></path><ellipse rx="160.27418187383762" ry="160.27418187383762" cx="166.95227278524752" cy="166.95227278524752" fill="#ffffff" stroke="transparent" stroke-width="0" fill-opacity="1" data-fill-palette-color="tertiary"></ellipse></g><g transform="matrix(1,0,0,1,75.38004569286848,71.17305217166896)"><svg viewBox="0 0 183.14445418475808 191.55844122715712" height="191.55844122715712" width="183.14445418475808"><g><svg viewBox="0 0 183.14445418475808 191.55844122715712" height="191.55844122715712" width="183.14445418475808"><g><svg viewBox="0 0 213.1584412271571 222.95132504909344" height="191.55844122715712" width="183.14445418475808"><g transform="matrix(1,0,0,1,0,128.96345199670588)"><svg viewBox="0 0 213.1584412271571 93.98787305238756" height="93.98787305238756" width="213.1584412271571"><g id="textblocktransform"><svg viewBox="0 0 213.1584412271571 93.98787305238756" height="93.98787305238756" width="213.1584412271571" id="textblock"><g><svg viewBox="0 0 213.1584412271571 93.98787305238756" height="93.98787305238756" width="213.1584412271571"><g transform="matrix(1,0,0,1,0,0)"><svg width="213.1584412271571" viewBox="-2.049999952316284 -33.95000076293945 77.45000457763672 34.150001525878906" height="93.98787305238756" data-palette-color="#333366"><path d="M35.45-22.9L30.55-5.9Q30.35-5.25 30.35-4.6L30.35-4.6Q30.35-4.05 30.5-3.68 30.65-3.3 30.83-3.08 31-2.85 31.05-2.75L31.05-2.75Q31.55-2.25 31.55-1.75L31.55-1.75Q31.55-1.65 31.45-1.25L31.45-1.25Q31.25-0.55 30.58-0.28 29.9 0 28.5 0L28.5 0 16.65 0Q15.6 0 15.03-0.35 14.45-0.7 14.45-1.3L14.45-1.3Q14.45-1.6 14.6-1.95L14.6-1.95Q14.75-2.35 15.03-2.58 15.3-2.8 15.8-3.1L15.8-3.1Q16.6-3.55 17.1-4.1 17.6-4.65 17.95-5.9L17.95-5.9 19.25-10.2 11.45-10.2 10.1-7.35Q9.25-5.5 9.25-4.45L9.25-4.45Q9.25-3.85 9.45-3.48 9.65-3.1 10.05-2.7L10.05-2.7Q10.4-2.3 10.53-2.02 10.65-1.75 10.55-1.3L10.55-1.3Q10.35-0.55 9.73-0.28 9.1 0 7.75 0L7.75 0 0.3 0Q-0.85 0-1.45-0.43-2.05-0.85-2.05-1.55L-2.05-1.55Q-2.05-2.35-1.48-2.83-0.9-3.3 0.25-3.85L0.25-3.85Q1.75-4.6 2.65-5.33 3.55-6.05 4.2-7.35L4.2-7.35 13.1-25.8Q15.15-30.1 17.93-32.02 20.7-33.95 25.25-33.95L25.25-33.95Q30.35-33.95 33.15-31.88 35.95-29.8 35.95-26.1L35.95-26.1Q35.95-24.55 35.45-22.9L35.45-22.9ZM13.75-15.2L20.75-15.2 23.4-24Q23.6-24.6 23.6-25.25L23.6-25.25Q23.6-26.2 23.08-26.68 22.55-27.15 21.6-27.15L21.6-27.15Q20.4-27.15 19.55-26.45 18.7-25.75 17.85-23.95L17.85-23.95 13.75-15.2ZM73.35-33.3Q75.4-33.3 75.4-32L75.4-32Q75.4-31.65 75.35-31.5L75.35-31.5Q75.2-31 74.9-30.73 74.6-30.45 74.05-30.1L74.05-30.1Q73.3-29.65 72.8-29.1 72.3-28.55 71.95-27.4L71.95-27.4 65.75-5.2Q64.9-2.2 63.62-1 62.35 0.2 60.1 0.2L60.1 0.2Q58.1 0.2 56.77-0.98 55.45-2.15 54.3-4.6L54.3-4.6 46.75-20.5 42.55-5.9Q42.4-5.25 42.4-4.75L42.4-4.75Q42.4-4.1 42.62-3.68 42.85-3.25 43.25-2.8L43.25-2.8Q43.8-2.15 43.8-1.7L43.8-1.7Q43.8-1.4 43.75-1.25L43.75-1.25Q43.55-0.55 42.85-0.28 42.15 0 40.75 0L40.75 0 35.3 0Q33.25 0 33.25-1.3L33.25-1.3Q33.25-1.65 33.3-1.8L33.3-1.8Q33.45-2.3 33.75-2.58 34.05-2.85 34.6-3.2L34.6-3.2Q35.35-3.65 35.85-4.2 36.35-4.75 36.7-5.9L36.7-5.9 43.05-28.35 42.25-30Q41.75-31 41.75-31.75L41.75-31.75Q41.75-33.3 43.75-33.3L43.75-33.3 51.15-33.3Q52.75-33.3 53.57-32.58 54.4-31.85 55.35-30L55.35-30 62.65-15.35 66.1-27.4Q66.25-28.1 66.25-28.55L66.25-28.55Q66.25-29.2 66.02-29.63 65.8-30.05 65.4-30.5L65.4-30.5Q64.85-31.15 64.85-31.6L64.85-31.6Q64.85-31.9 64.9-32.05L64.9-32.05Q65.1-32.75 65.8-33.02 66.5-33.3 67.9-33.3L67.9-33.3 73.35-33.3Z" opacity="1" transform="matrix(1,0,0,1,0,0)" fill="#333366" class="undefined-text-0" data-fill-palette-color="quaternary" id="text-0"></path></svg></g></svg></g></svg></g></svg></g><g transform="matrix(1,0,0,1,40.713262274387006,0)"><svg viewBox="0 0 131.7319166783831 106.77517087799045" height="106.77517087799045" width="131.7319166783831"><g><svg xmlns:x="http://ns.adobe.com/Extensibility/1.0/" xmlns:i="http://ns.adobe.com/AdobeIllustrator/10.0/" xmlns:graph="http://ns.adobe.com/Graphs/1.0/" xmlns="http://www.w3.org/2000/svg" xmlns:xlink="http://www.w3.org/1999/xlink" version="1.1" x="0" y="0" viewBox="3.5 12.300000190734863 92.89999389648438 75.29999542236328" enable-background="new 0 0 100 100" xml:space="preserve" height="106.77517087799045" width="131.7319166783831" class="icon-icon-0" data-fill-palette-color="quaternary" id="icon-0"><path d="M10.7 87.6h78.5c4 0 7.2-3.2 7.2-7.2V19.5c0-4-3.2-7.2-7.2-7.2H10.7c-4 0-7.2 3.2-7.2 7.2v60.9C3.6 84.4 6.8 87.6 10.7 87.6zM89.3 82.6H10.7c-1.2 0-2.2-1-2.2-2.2V34.9h82.9v45.5C91.4 81.7 90.5 82.6 89.3 82.6zM10.7 17.4h78.5c1.2 0 2.2 1 2.2 2.2v10.4H8.6V19.5C8.6 18.3 9.5 17.4 10.7 17.4zM21.9 23.6c0-1.7 1.4-3 3-3s3 1.4 3 3c0 1.7-1.4 3-3 3S21.9 25.3 21.9 23.6zM31.9 23.6c0-1.7 1.4-3 3-3s3 1.4 3 3c0 1.7-1.4 3-3 3S31.9 25.3 31.9 23.6zM11.9 23.6c0-1.7 1.4-3 3-3 1.7 0 3 1.4 3 3 0 1.7-1.4 3-3 3C13.3 26.7 11.9 25.3 11.9 23.6zM85.4 74.7c0 1.4-1.1 2.5-2.5 2.5H17.1c-1.4 0-2.5-1.1-2.5-2.5s1.1-2.5 2.5-2.5h65.8C84.3 72.2 85.4 73.4 85.4 74.7zM85.4 64.2c0 1.4-1.1 2.5-2.5 2.5H34.4c-1.4 0-2.5-1.1-2.5-2.5s1.1-2.5 2.5-2.5h48.5C84.3 61.7 85.4 62.8 85.4 64.2zM85.4 53.7c0 1.4-1.1 2.5-2.5 2.5H17.1c-1.4 0-2.5-1.1-2.5-2.5s1.1-2.5 2.5-2.5h65.8C84.3 51.2 85.4 52.3 85.4 53.7zM85.4 43.1c0 1.4-1.1 2.5-2.5 2.5H50c-1.4 0-2.5-1.1-2.5-2.5s1.1-2.5 2.5-2.5h32.9C84.3 40.6 85.4 41.7 85.4 43.1z" fill="#333366" data-fill-palette-color="quaternary"></path></svg></g></svg></g><g></g></svg></g></svg></g></svg></g></svg></g><defs></defs></svg><rect width="333.90454557049503" height="333.90454557049503" fill="none" stroke="none" visibility="hidden"></rect></g></svg></g></svg>